<svg width="490" height="455" viewBox="0 0 490 455" fill="none" xmlns="http://www.w3.org/2000/svg">
<g opacity="0.04">
<path d="M95.9726 174.47L95.9881 174.462L96.0031 174.454C99.634 172.396 104.055 174.656 105.084 178.635C105.633 182.355 103.376 185.597 100.152 186.418C96.4924 187.35 93.0471 185.532 92.502 181.916L92.4983 181.891L92.4921 181.867C91.8462 179.33 92.5554 176.107 95.9726 174.47Z" fill="black" stroke="black"/>
<path d="M445.697 198.016L404.833 193.148C406.369 189.455 407.32 185.085 407.109 181.011C406.89 175.288 405.022 169.573 401.702 164.639C422.309 151.55 423.049 143.106 422.259 140.005C403.112 64.8045 304.466 24.2921 202.131 50.3481C99.7957 76.4042 32.8241 158.673 51.9714 233.873C53.057 238.137 58.5197 245.002 81.2284 246.649C80.672 252.57 81.7648 258.483 84.3094 263.614C86.7554 268.357 90.2656 272.416 94.6425 275.017L58.7573 322.128C54.8037 327.675 59.9774 335.025 66.4685 332.96C79.1617 329.315 92.3412 325.959 105.33 323.478C96.3591 335.256 89.8195 348.478 85.9089 363.92C84.7674 369.164 89.2502 373.801 94.6771 372.42L97.0029 371.827C104.095 396.439 124.1 445.829 199.688 426.584L384.977 379.406C437.307 366.082 459.203 336.98 450.376 292.585C450.635 292.478 450.898 292.371 451.163 292.262C453.577 291.272 456.204 290.194 458.122 288.962C461.413 287.298 462.463 283.316 461.187 279.926C454.913 265.013 443.995 252.934 431.153 244.646C426.579 241.27 421.427 238.867 416.275 236.464L416.275 236.464C426.324 227.301 437.248 218.328 448.468 210.519C454.177 207.001 452.005 198.473 445.697 198.016ZM110.902 265.924C105.566 266.044 99.8291 262.964 96.6994 257.157C95.0358 253.866 94.5352 250.278 95.2961 246.782C95.8618 246.692 96.9204 246.656 98.5795 246.601C109.716 246.226 147.91 244.943 245.748 220.032C287.224 209.472 344.974 193.117 383.504 174.226C383.979 173.921 385.129 173.361 386.317 172.784C387.792 172.067 389.325 171.321 389.699 170.997C395.747 178.538 393.76 190.189 385.049 194.883C366.662 205.344 328.315 221.712 251.176 241.352C172.973 261.677 131.954 265.929 110.902 265.924ZM65.2424 229.256C49.232 161.512 112.166 87.7013 205.973 63.8166C299.78 39.9319 389.573 74.8558 408.1 141.134C403.279 148.14 387.697 156.648 387.309 156.746C350.048 177.378 283.77 195.905 242.293 206.465C214.87 213.86 89.27 244.189 65.2424 229.256ZM104.776 352.1C111.986 334.764 122.549 324.692 126.271 321.144C126.91 320.534 127.347 320.117 127.531 319.889C176.394 312.401 238.853 308.055 309.77 307.747C300.579 312.943 292.072 318.74 283.733 324.423C265.553 336.812 248.171 348.657 226.24 352.543C205.389 355.511 190.962 354.095 176.221 352.647C157.17 350.777 137.594 348.855 102.95 356.279C103.817 354.82 104.296 353.46 104.776 352.1ZM196.234 413.016C149.718 424.86 123.661 411.682 110.669 368.761C140.922 363.053 158.89 364.762 176.496 366.435C191.665 367.877 206.564 369.294 228.821 365.92C253.785 361.657 272.951 348.516 291.808 335.587C306.414 325.572 320.836 315.685 337.624 310.149C353.463 304.843 368.733 304.155 385.271 303.411C400.899 302.707 417.66 301.953 437.105 297.202C443.275 332.78 425.325 354.686 381.522 365.839L196.234 413.016ZM423.733 256.029C432.684 262.005 440.381 269.539 445.66 278.926C444.741 279.367 443.796 279.711 442.852 280.054C441.907 280.398 440.963 280.742 440.043 281.182C423.142 287.214 405.698 287.955 387.8 288.716C380.054 289.045 372.222 289.378 364.313 290.145C377.154 275.731 391.058 260.633 405.647 246.6C411.673 249.193 417.897 252.562 423.733 256.029ZM343.275 293.438C234.419 292.261 142.965 299.449 82.6847 313.972L109.021 279.611C141.921 282.379 222.168 263.598 254.729 255.307C317.913 239.219 364.217 223.302 391.992 207.562C392.524 207.22 392.96 206.903 393.395 206.586C393.83 206.269 394.265 205.951 394.797 205.61L426.344 209.547C396.371 232.864 368.082 264.42 343.275 293.438Z" fill="black"/>
<path d="M445.697 198.016L404.833 193.148C406.369 189.455 407.32 185.085 407.109 181.011C406.89 175.288 405.022 169.573 401.702 164.639C422.309 151.55 423.049 143.106 422.259 140.005C403.112 64.8045 304.466 24.2921 202.131 50.3481C99.7957 76.4042 32.8241 158.673 51.9714 233.873C53.057 238.137 58.5197 245.002 81.2284 246.649C80.672 252.57 81.7648 258.483 84.3094 263.614C86.7554 268.357 90.2656 272.416 94.6425 275.017L58.7573 322.128C54.8037 327.675 59.9774 335.025 66.4685 332.96C79.1617 329.315 92.3412 325.959 105.33 323.478C96.3591 335.256 89.8195 348.478 85.9089 363.92C84.7674 369.164 89.2502 373.801 94.6771 372.42L97.0029 371.827C104.095 396.439 124.1 445.829 199.688 426.584L384.977 379.406C437.307 366.082 459.203 336.98 450.376 292.585C450.635 292.478 450.898 292.371 451.163 292.262C453.577 291.272 456.204 290.194 458.122 288.962C461.413 287.298 462.463 283.316 461.187 279.926C454.913 265.013 443.995 252.934 431.153 244.646C426.579 241.27 421.427 238.867 416.275 236.464L416.275 236.464C426.324 227.301 437.248 218.328 448.468 210.519C454.177 207.001 452.005 198.473 445.697 198.016ZM110.902 265.924C105.566 266.044 99.8291 262.964 96.6994 257.157C95.0358 253.866 94.5352 250.278 95.2961 246.782C95.8618 246.692 96.9204 246.656 98.5795 246.601C109.716 246.226 147.91 244.943 245.748 220.032C287.224 209.472 344.974 193.117 383.504 174.226C383.979 173.921 385.129 173.361 386.317 172.784C387.792 172.067 389.325 171.321 389.699 170.997C395.747 178.538 393.76 190.189 385.049 194.883C366.662 205.344 328.315 221.712 251.176 241.352C172.973 261.677 131.954 265.929 110.902 265.924ZM65.2424 229.256C49.232 161.512 112.166 87.7013 205.973 63.8166C299.78 39.9319 389.573 74.8558 408.1 141.134C403.279 148.14 387.697 156.648 387.309 156.746C350.048 177.378 283.77 195.905 242.293 206.465C214.87 213.86 89.27 244.189 65.2424 229.256ZM104.776 352.1C111.986 334.764 122.549 324.692 126.271 321.144C126.91 320.534 127.347 320.117 127.531 319.889C176.394 312.401 238.853 308.055 309.77 307.747C300.579 312.943 292.072 318.74 283.733 324.423C265.553 336.812 248.171 348.657 226.24 352.543C205.389 355.511 190.962 354.095 176.221 352.647C157.17 350.777 137.594 348.855 102.95 356.279C103.817 354.82 104.296 353.46 104.776 352.1ZM196.234 413.016C149.718 424.86 123.661 411.682 110.669 368.761C140.922 363.053 158.89 364.762 176.496 366.435C191.665 367.877 206.564 369.294 228.821 365.92C253.785 361.657 272.951 348.516 291.808 335.587C306.414 325.572 320.836 315.685 337.624 310.149C353.463 304.843 368.733 304.155 385.271 303.411C400.899 302.707 417.66 301.953 437.105 297.202C443.275 332.78 425.325 354.686 381.522 365.839L196.234 413.016ZM423.733 256.029C432.684 262.005 440.381 269.539 445.66 278.926C444.741 279.367 443.796 279.711 442.852 280.054C441.907 280.398 440.963 280.742 440.043 281.182C423.142 287.214 405.698 287.955 387.8 288.716C380.054 289.045 372.222 289.378 364.313 290.145C377.154 275.731 391.058 260.633 405.647 246.6C411.673 249.193 417.897 252.562 423.733 256.029ZM343.275 293.438C234.419 292.261 142.965 299.449 82.6847 313.972L109.021 279.611C141.921 282.379 222.168 263.598 254.729 255.307C317.913 239.219 364.217 223.302 391.992 207.562C392.524 207.22 392.96 206.903 393.395 206.586C393.83 206.269 394.265 205.951 394.797 205.61L426.344 209.547C396.371 232.864 368.082 264.42 343.275 293.438Z" stroke="black"/>
<path d="M158.47 183.642C161.959 182.754 164.369 179.251 163.77 175.276C162.684 171.012 157.919 168.51 153.952 170.759C150.273 172.521 149.512 176.017 150.203 178.731C151.091 182.219 154.981 184.531 158.47 183.642Z" fill="black"/>
<path d="M172.28 124.403C175.769 123.515 178.179 120.012 177.58 116.037C176.494 111.773 171.73 109.271 167.762 111.52C164.083 113.282 163.322 116.778 164.013 119.491C165 123.368 168.792 125.292 172.28 124.403Z" fill="black"/>
<path d="M232.668 134.619C236.157 133.731 238.567 130.228 237.968 126.253C236.882 121.989 232.117 119.487 228.149 121.735C224.471 123.498 223.71 126.994 224.4 129.707C225.387 133.583 229.179 135.507 232.668 134.619Z" fill="black"/>
<path d="M275.489 98.5374C278.978 97.6492 281.388 94.1461 280.789 90.1711C279.703 85.9072 274.938 83.4054 270.971 85.654C267.292 87.4162 266.531 90.9121 267.222 93.6255C268.11 97.1142 272.001 99.4257 275.489 98.5374Z" fill="black"/>
<path d="M347.407 105.405C350.896 104.516 353.306 101.013 352.707 97.0382C351.621 92.7743 346.856 90.2725 342.889 92.5211C339.21 94.2833 338.449 97.7792 339.14 100.493C339.739 104.468 343.531 106.391 347.407 105.405Z" fill="black"/>
<path d="M320.768 136.953C324.257 136.065 326.667 132.562 326.067 128.587C324.982 124.323 320.217 121.821 316.249 124.07C312.57 125.832 311.809 129.328 312.5 132.041C313.389 135.53 317.279 137.841 320.768 136.953Z" fill="black"/>
</g>
</svg>
