<svg width="512" height="512" viewBox="0 0 512 512" fill="none" xmlns="http://www.w3.org/2000/svg">
<g opacity="0.03">
<path d="M211.07 335.719C214.657 337.79 219.244 336.561 221.315 332.974C223.386 329.387 222.157 324.8 218.57 322.729C214.983 320.658 210.396 321.887 208.325 325.474C206.254 329.061 207.483 333.648 211.07 335.719Z" fill="black"/>
<path d="M302.07 178.102C298.483 176.031 293.896 177.26 291.825 180.847C289.754 184.434 290.983 189.021 294.57 191.092C298.157 193.163 302.744 191.934 304.815 188.347C306.886 184.76 305.657 180.174 302.07 178.102Z" fill="black"/>
<path d="M211.07 178.102C207.483 180.173 206.254 184.76 208.325 188.347C210.396 191.934 214.983 193.163 218.57 191.092C222.157 189.021 223.386 184.434 221.315 180.847C219.244 177.26 214.657 176.031 211.07 178.102Z" fill="black"/>
<path d="M399.5 293.5C420.178 293.5 437 276.678 437 256C437 235.322 420.178 218.5 399.5 218.5C378.822 218.5 362 235.323 362 256C362 276.677 378.822 293.5 399.5 293.5ZM399.5 233.5C411.906 233.5 422 243.593 422 256C422 268.407 411.906 278.5 399.5 278.5C387.094 278.5 377 268.407 377 256C377 243.593 387.094 233.5 399.5 233.5Z" fill="black"/>
<path d="M112.5 293.5C133.178 293.5 150 276.678 150 256C150 235.322 133.178 218.5 112.5 218.5C91.822 218.5 75 235.323 75 256C75 276.677 91.822 293.5 112.5 293.5ZM112.5 233.5C124.907 233.5 135 243.593 135 256C135 268.407 124.907 278.5 112.5 278.5C100.093 278.5 90 268.407 90 256C90 243.593 100.093 233.5 112.5 233.5Z" fill="black"/>
<path d="M346.5 99.25C328.593 88.911 305.613 95.068 295.274 112.976C284.935 130.884 291.092 153.863 309 164.202C326.908 174.541 349.887 168.384 360.226 150.476C370.565 132.568 364.407 109.589 346.5 99.25ZM347.236 142.976C341.033 153.72 327.245 157.415 316.5 151.212C305.755 145.009 302.061 131.221 308.264 120.476C314.467 109.731 328.255 106.037 339 112.24C349.745 118.443 353.439 132.232 347.236 142.976Z" fill="black"/>
<path d="M165.5 412.751C183.407 423.09 206.387 416.932 216.726 399.025C227.065 381.118 220.908 358.138 203 347.799C185.092 337.46 162.113 343.617 151.774 361.525C141.435 379.432 147.593 402.412 165.5 412.751ZM164.764 369.025C170.967 358.28 184.755 354.586 195.5 360.789C206.245 366.992 209.939 380.78 203.736 391.525C197.533 402.27 183.745 405.964 173 399.761C162.255 393.558 158.561 379.77 164.764 369.025Z" fill="black"/>
<path d="M203 164.202C220.907 153.863 227.065 130.884 216.726 112.976C206.387 95.068 183.407 88.911 165.5 99.25C147.593 109.589 141.435 132.568 151.774 150.476C162.113 168.384 185.093 174.541 203 164.202ZM173 112.24C183.745 106.037 197.532 109.731 203.736 120.476C209.94 131.221 206.245 145.008 195.5 151.212C184.755 157.416 170.968 153.721 164.764 142.976C158.56 132.231 162.255 118.444 173 112.24Z" fill="black"/>
<path d="M346.5 412.751C364.407 402.412 370.565 379.432 360.226 361.525C349.887 343.618 326.908 337.46 309 347.799C291.092 358.138 284.935 381.117 295.274 399.025C305.613 416.932 328.593 423.09 346.5 412.751ZM316.5 360.789C327.245 354.586 341.032 358.28 347.236 369.025C353.44 379.77 349.745 393.557 339 399.761C328.255 405.965 314.468 402.27 308.264 391.525C302.06 380.78 305.755 366.993 316.5 360.789Z" fill="black"/>
<path d="M489.424 150.751C485.926 143.004 479.287 137.069 471.21 134.469C470.128 134.121 469.032 133.842 467.928 133.62C468.282 132.565 468.582 131.489 468.817 130.391C470.599 122.079 468.764 113.349 463.782 106.439C420.744 46.748 354.244 8.403 281.331 1.239C272.978 0.418001 264.608 3.189 258.371 8.843C257.531 9.605 256.742 10.414 256 11.258C255.258 10.414 254.469 9.605 253.629 8.843C247.392 3.189 239.023 0.414001 230.67 1.239C157.757 8.403 91.256 46.748 48.218 106.44C43.235 113.351 41.4 122.081 43.182 130.392C43.417 131.49 43.718 132.566 44.071 133.621C42.967 133.842 41.871 134.121 40.79 134.469C32.713 137.07 26.075 143.004 22.576 150.751C7.596 183.919 0 219.331 0 256C0 292.669 7.596 328.081 22.576 361.249C26.075 368.996 32.714 374.931 40.79 377.531C41.873 377.879 42.972 378.142 44.077 378.363C43.721 379.423 43.418 380.505 43.182 381.608C41.4 389.919 43.235 398.65 48.218 405.56C91.256 465.252 157.757 503.597 230.669 510.761C231.635 510.856 232.601 510.903 233.564 510.903C240.93 510.903 248.114 508.157 253.629 503.157C254.469 502.395 255.258 501.587 256 500.742C256.742 501.586 257.531 502.395 258.371 503.157C263.887 508.157 271.069 510.903 278.436 510.903C279.399 510.903 280.366 510.856 281.331 510.761C354.244 503.596 420.744 465.252 463.782 405.56C468.764 398.65 470.599 389.92 468.817 381.608C468.58 380.504 468.278 379.422 467.922 378.362C469.027 378.141 470.127 377.878 471.21 377.53C479.287 374.929 485.926 368.995 489.424 361.248C504.404 328.081 512 292.67 512 256C512 219.33 504.404 183.92 489.424 150.751ZM268.445 19.956C271.597 17.1 275.653 15.754 279.864 16.166C348.494 22.91 411.094 59.011 451.615 115.212C454.158 118.739 455.058 123.013 454.151 127.245C453.253 131.434 450.714 134.92 447.005 137.062L434.561 144.247C428.507 136.38 420.764 130.174 413.222 124.138C408.3 120.199 403.651 116.478 399.587 112.414C395.523 108.35 391.802 103.701 387.861 98.778C380.316 89.35 372.513 79.602 361.522 73.242C350.677 66.968 338.362 65.06 326.452 63.215C320.167 62.242 314.231 61.322 308.568 59.809C303.192 58.372 297.761 56.247 292.012 53.998C282.919 50.44 273.575 46.79 263.499 45.495V31.111C263.5 26.809 265.257 22.847 268.445 19.956ZM433.96 187.844C434.951 194.245 435.977 200.863 437.698 207.305C439.352 213.492 441.731 219.573 444.032 225.453C448.13 235.927 452 245.82 452 256C452 266.18 448.13 276.073 444.032 286.547C441.731 292.427 439.352 298.508 437.698 304.695C435.976 311.137 434.951 317.755 433.96 324.155C432.689 332.36 431.469 340.224 428.925 347.177L384.476 321.514C384.649 313.462 380.459 305.627 373.25 301.465C366.041 297.303 357.162 297.593 350.275 301.768L271 256L428.925 164.822C431.469 171.775 432.689 179.639 433.96 187.844ZM139.449 180.05L90.575 151.832C95.383 146.071 101.632 141.068 108.152 135.849C113.176 131.828 118.371 127.671 123.021 123.021C127.67 118.372 131.828 113.177 135.848 108.154C142.836 99.423 149.436 91.176 157.99 86.227C166.399 81.362 176.816 79.748 187.844 78.04C194.244 77.049 200.862 76.024 207.304 74.302C213.491 72.649 219.571 70.27 225.451 67.969C233.339 64.883 240.898 61.927 248.499 60.655V243.01L164.8 194.686C163.628 194.009 162.335 193.681 161.053 193.681C159.003 193.681 156.979 194.52 155.518 196.117C153.166 198.687 149.268 199.285 146.249 197.543C143.23 195.8 141.801 192.125 142.85 188.803C143.911 185.449 142.496 181.809 139.449 180.05ZM263.5 60.655C271.1 61.927 278.659 64.883 286.547 67.969C292.428 70.269 298.509 72.649 304.695 74.302C311.137 76.024 317.756 77.049 324.156 78.04C335.184 79.748 345.601 81.362 354.01 86.227C362.563 91.176 369.162 99.422 376.15 108.152C380.171 113.176 384.33 118.371 388.979 123.021C393.629 127.671 398.825 131.829 403.848 135.85C410.368 141.068 416.616 146.071 421.424 151.832L263.5 243.01V60.655ZM248.5 451.346C240.899 450.074 233.34 447.118 225.452 444.032C219.572 441.731 213.491 439.352 207.305 437.699C200.863 435.977 194.244 434.952 187.844 433.961C176.816 432.253 166.399 430.639 157.99 425.774C149.437 420.825 142.837 412.579 135.849 403.848C131.828 398.824 127.671 393.629 123.021 388.979C118.371 384.329 113.177 380.171 108.153 376.151C101.633 370.932 95.384 365.929 90.576 360.168L248.5 268.991V451.346ZM263.5 268.991L347.199 317.315C350.244 319.073 354.104 318.479 356.481 315.884C358.832 313.316 362.729 312.713 365.75 314.457C368.769 316.2 370.198 319.876 369.149 323.197C368.088 326.552 369.503 330.193 372.55 331.951L421.424 360.168C416.616 365.929 410.366 370.933 403.846 376.152C398.823 380.173 393.628 384.33 388.978 388.98C384.329 393.629 380.171 398.824 376.152 403.847C369.164 412.578 362.563 420.826 354.009 425.774C345.601 430.639 335.184 432.253 324.155 433.961C317.755 434.952 311.136 435.977 304.694 437.699C298.507 439.352 292.426 441.732 286.546 444.032C278.658 447.118 271.099 450.074 263.499 451.346V268.991H263.5ZM60.385 115.212C100.906 59.011 163.508 22.91 232.136 16.166C236.347 15.754 240.402 17.098 243.554 19.956C246.743 22.847 248.5 26.809 248.5 31.111V45.497C238.424 46.793 229.08 50.443 219.987 54C214.238 56.249 208.808 58.374 203.432 59.811C197.769 61.325 191.833 62.244 185.548 63.217C173.638 65.062 161.322 66.969 150.478 73.244C139.486 79.603 131.683 89.353 124.137 98.781C120.198 103.703 116.477 108.351 112.414 112.415C108.351 116.478 103.701 120.199 98.779 124.139C91.236 130.176 83.493 136.382 77.439 144.249L64.994 137.064C61.284 134.922 58.746 131.436 57.848 127.247C56.941 123.014 57.842 118.74 60.385 115.212ZM36.247 355.076C22.148 323.86 15 290.527 15 256C15 221.473 22.148 188.14 36.247 156.925C38.031 152.975 41.277 150.071 45.388 148.747C49.462 147.434 53.75 147.891 57.458 150.032C57.495 150.053 75.978 160.724 75.978 160.724C75.981 160.725 127.525 190.485 127.525 190.485C127.353 198.537 131.542 206.372 138.75 210.533C145.959 214.696 154.839 214.407 161.725 210.23L241 256L83.075 347.178C80.531 340.225 79.31 332.361 78.039 324.156C77.048 317.756 76.023 311.138 74.301 304.696C72.648 298.509 70.269 292.429 67.968 286.549C63.871 276.075 60 266.182 60 256C60 245.818 63.871 235.926 67.968 225.452C70.269 219.572 72.648 213.491 74.301 207.305C76.026 200.854 77.052 194.227 78.046 187.818L78.479 185.037C79.123 180.945 76.328 177.106 72.236 176.462C68.144 175.813 64.305 178.613 63.662 182.705L63.224 185.52C62.248 191.814 61.327 197.759 59.811 203.431C58.374 208.807 56.249 214.237 54 219.986C49.576 231.295 45 242.988 45 255.999C45 269.01 49.575 280.704 54 292.012C56.249 297.761 58.374 303.191 59.811 308.567C61.325 314.23 62.244 320.166 63.217 326.451C64.688 335.948 66.206 345.7 69.939 354.761L57.495 361.945C53.749 364.106 49.463 364.564 45.388 363.251C41.277 361.93 38.031 359.026 36.247 355.076ZM243.555 492.045C240.403 494.902 236.348 496.248 232.136 495.835C163.507 489.091 100.907 452.99 60.385 396.789C57.842 393.262 56.941 388.988 57.849 384.755C58.747 380.567 61.285 377.08 64.995 374.938L77.44 367.753C83.494 375.62 91.237 381.826 98.78 387.863C103.702 391.802 108.351 395.523 112.414 399.587C116.477 403.651 120.198 408.3 124.138 413.222C131.684 422.65 139.486 432.399 150.478 438.759C161.322 445.033 173.638 446.941 185.548 448.786C191.833 449.759 197.769 450.679 203.432 452.192C208.808 453.629 214.238 455.754 219.987 458.003C229.08 461.561 238.424 465.211 248.5 466.506V480.892C248.5 485.192 246.744 489.154 243.555 492.045ZM451.614 396.789C411.094 452.99 348.494 489.091 279.864 495.835C275.642 496.245 271.596 494.902 268.445 492.045C265.257 489.154 263.5 485.192 263.5 480.89V466.504C273.576 465.209 282.919 461.559 292.013 458.001C297.762 455.751 303.193 453.627 308.569 452.19C314.232 450.676 320.168 449.757 326.453 448.784C338.363 446.939 350.679 445.032 361.522 438.757C372.514 432.398 380.317 422.648 387.864 413.219C391.802 408.298 395.523 403.649 399.586 399.586C403.65 395.523 408.299 391.802 413.221 387.863C420.764 381.826 428.507 375.619 434.561 367.752L447.006 374.937C450.716 377.079 453.254 380.565 454.152 384.754C455.059 388.987 454.158 393.261 451.614 396.789ZM475.754 355.076C473.97 359.026 470.724 361.93 466.613 363.254C462.537 364.566 458.251 364.11 454.542 361.969C454.505 361.948 442.061 354.764 442.061 354.764C445.794 345.703 447.312 335.95 448.783 326.453C449.757 320.168 450.677 314.232 452.19 308.57C453.627 303.194 455.752 297.763 458.001 292.013C462.425 280.704 467 269.011 467 256C467 242.989 462.425 231.296 458.001 219.988C455.752 214.238 453.627 208.808 452.19 203.431C450.676 197.768 449.756 191.832 448.783 185.547C447.312 176.05 445.794 166.298 442.061 157.237L454.504 150.053C458.25 147.89 462.538 147.435 466.612 148.747C470.722 150.071 473.968 152.975 475.753 156.925C489.852 188.141 497 221.475 497 256C497 290.525 489.852 323.86 475.754 355.076Z" fill="black"/>
</g>
</svg>
